<svg width="511" height="512" viewBox="0 0 511 512" fill="none" xmlns="http://www.w3.org/2000/svg">
<path d="M399 191.9H31C13.25 191.9 -1 206.2 -1 223.9V415.9C-1 468.9 42 511.9 95 511.9H287C340 511.9 383 468.9 383 415.9H399C460.75 415.9 511 365.65 511 303.9C511 242.15 460.8 191.9 399 191.9ZM399 351.9H383V255.9H399C425.5 255.9 447 277.4 447 303.9C447 330.4 425.5 351.9 399 351.9ZM106.9 100.6C119.3 107 127 121.3 127 135.9C127 149.15 137.75 159.79 151 159.79C164.25 159.79 175 148 175 135.6C175 104.26 158.17 74.96 131.09 59.15C118.7 51.93 111 38.53 111 24.18C111 10.93 100.25 0.04 87 0.04C73.75 0.04 63 10.93 63 24.18C63 55.53 79.83 84.82 106.9 100.6ZM218.9 100.6C231.3 107 239 121.3 239 135.9C239 149.15 249.75 159.76 263 159.76C276.25 159.76 287 148 287 135.6C287 104.26 270.17 74.96 243.09 59.15C230.7 51.93 223 38.53 223 24.18C223 10.93 212.25 0 199 0C185.75 0 175 10.93 175 24.18C175 55.53 191.8 84.82 218.9 100.6Z" fill="#F44336"/>
</svg>
